<?xml version="1.0" encoding="UTF-8"?>
<svg xmlns="http://www.w3.org/2000/svg" xmlns:xlink="http://www.w3.org/1999/xlink" viewBox="0 0 1920 1080">
  <defs>
    <style>
      .cls-1 {
        opacity: .05;
      }

      .cls-1, .cls-2, .cls-3, .cls-4, .cls-5, .cls-6, .cls-7, .cls-8, .cls-9, .cls-10, .cls-11, .cls-12, .cls-13, .cls-14, .cls-15, .cls-16, .cls-17, .cls-18, .cls-19, .cls-20, .cls-21, .cls-22, .cls-23, .cls-24, .cls-25, .cls-26, .cls-27, .cls-28, .cls-29, .cls-30, .cls-31, .cls-32, .cls-33, .cls-34, .cls-35 {
        mix-blend-mode: color-dodge;
      }

      .cls-2 {
        opacity: .87;
      }

      .cls-3 {
        opacity: .6;
      }

      .cls-4 {
        opacity: .23;
      }

      .cls-5 {
        opacity: .14;
      }

      .cls-6 {
        opacity: .72;
      }

      .cls-7 {
        opacity: .79;
      }

      .cls-36 {
        fill: #fff;
      }

      .cls-8 {
        opacity: .41;
      }

      .cls-9 {
        opacity: .06;
      }

      .cls-10 {
        opacity: .19;
      }

      .cls-11 {
        opacity: .79;
      }

      .cls-37 {
        fill: none;
      }

      .cls-12 {
        opacity: .34;
      }

      .cls-13 {
        opacity: .29;
      }

      .cls-14 {
        opacity: .36;
      }

      .cls-15 {
        opacity: .64;
      }

      .cls-16 {
        opacity: .18;
      }

      .cls-17 {
        opacity: .93;
      }

      .cls-38 {
        isolation: isolate;
      }

      .cls-18 {
        opacity: .4;
      }

      .cls-19 {
        opacity: .27;
      }

      .cls-20 {
        opacity: .6;
      }

      .cls-39 {
        fill: url(#Degradado_sin_nombre_4);
        stroke: #211915;
        stroke-miterlimit: 10;
      }

      .cls-21 {
        opacity: .92;
      }

      .cls-22 {
        opacity: .72;
      }

      .cls-23 {
        opacity: .77;
      }

      .cls-40 {
        opacity: .6;
      }

      .cls-24 {
        opacity: .25;
      }

      .cls-25 {
        opacity: .58;
      }

      .cls-26 {
        opacity: .13;
      }

      .cls-27 {
        opacity: .35;
      }

      .cls-28 {
        opacity: .63;
      }

      .cls-29 {
        opacity: .7;
      }

      .cls-30 {
        opacity: .2;
      }

      .cls-41 {
        clip-path: url(#clippath);
      }

      .cls-31 {
        opacity: .24;
      }

      .cls-32 {
        opacity: .76;
      }

      .cls-33 {
        opacity: .64;
      }

      .cls-34 {
        opacity: .59;
      }

      .cls-35 {
        opacity: .94;
      }
    </style>
    <clipPath id="clippath">
      <rect class="cls-37" x="-12.5" y="-13.5" width="1945" height="1107"/>
    </clipPath>
    <linearGradient id="Degradado_sin_nombre_4" data-name="Degradado sin nombre 4" x1="1007" y1="8.82" x2="995.15" y2="1091.74" gradientUnits="userSpaceOnUse">
      <stop offset="0" stop-color="#4693cf"/>
      <stop offset="1" stop-color="#2b6cae"/>
    </linearGradient>
  </defs>
  <g class="cls-38">
    <g id="Capa_1">
      <g class="cls-41">
        <rect class="cls-39" x="-133.04" y="-84.5" width="2268.35" height="1259.38"/>
        <g class="cls-40">
          <g>
            <g id="triangle36" class="cls-31">
              <path class="cls-36" d="M1564.12,1156.09l96.9-139.66,31.66,132.87-128.56,6.79ZM1659.9,1022.64l-90.43,130.34,119.98-6.34-29.55-124Z"/>
            </g>
            <g id="triangle36-2" data-name="triangle36" class="cls-25">
              <path class="cls-36" d="M1647.92,502.72l1.26-2.45,81.55,46.11,7.07,24.34-89.87-68ZM1728.68,548.39l-62.85-35.53,67.32,50.93-4.47-15.4Z"/>
            </g>
            <g id="triangle36-3" data-name="triangle36" class="cls-16">
              <path class="cls-36" d="M1757.93,421.57l16.2-165.46,97.53,89.54-113.73,75.92ZM1776.12,261.58l-15.14,154.66,106.31-70.97-91.16-83.7Z"/>
            </g>
            <g id="triangle36-4" data-name="triangle36" class="cls-29">
              <path class="cls-36" d="M970.6,1087.02l1.26-1.53,87.29-105.4-14.07,140.01-74.49-33.08ZM1055.81,988.27l-80.86,97.63,68.01,30.21,12.85-127.84Z"/>
            </g>
            <g id="triangle36-5" data-name="triangle36" class="cls-12">
              <path class="cls-36" d="M1888.67,770.04l165.57,102.46-111.36,16.59-.41-.89-53.81-118.16ZM2046.3,870.81l-151.66-93.85,49.66,109.04,102-15.19Z"/>
            </g>
            <g id="triangle36-6" data-name="triangle36" class="cls-2">
              <path class="cls-36" d="M1867.82,346.62l37.84-132.62,1.39,1.12,214.43,173.09-253.67-41.58ZM1907,218.56l-35.88,125.74,240.5,39.42-204.62-165.16Z"/>
            </g>
            <g id="triangle36-7" data-name="triangle36" class="cls-10">
              <path class="cls-36" d="M1281.33,1044.73l131.98-185.47,42.15,199.25-174.12-13.78ZM1412.06,865.54l-125.77,176.74,165.93,13.13-40.16-189.87Z"/>
            </g>
            <g id="triangle36-8" data-name="triangle36" class="cls-21">
              <path class="cls-36" d="M1727.25,543.46l79.78,69.31-1.39,2.35-71.2-46.92-7.18-24.74ZM1789.93,601.49l-57.77-50.19,4.35,14.99,53.41,35.2Z"/>
            </g>
            <g id="triangle36-9" data-name="triangle36" class="cls-30">
              <path class="cls-36" d="M1803.69,611.83l116.71,28.01-28.22,137.38-88.49-165.39ZM1917.38,642.01l-108.55-26.05,82.3,153.82,26.24-127.78Z"/>
            </g>
            <g id="triangle36-10" data-name="triangle36" class="cls-19">
              <path class="cls-36" d="M1887.61,775.69l136.32-137.82,85.02,96.48-221.34,41.35ZM2023.82,641.77l-128.12,129.53,208.03-38.86-79.91-90.67Z"/>
            </g>
            <g id="triangle36-11" data-name="triangle36" class="cls-28">
              <path class="cls-36" d="M1523.85,441.89l126.72,59.03-68.58,105.94-58.14-164.97ZM1646.66,502.17l-118.29-55.1,54.27,153.99,64.02-98.88Z"/>
            </g>
            <g id="triangle36-12" data-name="triangle36" class="cls-32">
              <path class="cls-36" d="M1578.53,603.41l158.21-37.91-1.46,125.98-156.75-88.07ZM1734.2,569.01l-148.1,35.49,146.73,82.43,1.37-117.92Z"/>
            </g>
            <g id="triangle36-13" data-name="triangle36" class="cls-14">
              <path class="cls-36" d="M1710.25,1096.31l233.44-124.56-38.24,230.69-195.2-106.14ZM1940.32,976.69l-224.24,119.66,187.5,101.95,36.74-221.61Z"/>
            </g>
            <g id="triangle36-14" data-name="triangle36" class="cls-9">
              <path class="cls-36" d="M1697.08,840.82l247.78,45.52-1.65,90.13-246.13-135.65ZM1942.32,888.75l-228.83-42.04,227.3,125.26,1.52-83.23Z"/>
            </g>
            <g id="triangle36-15" data-name="triangle36" class="cls-3">
              <path class="cls-36" d="M1450.58,1057.6l114.98-81.68-51.21,97.6-63.77-15.92ZM1558.12,984.55l-101.02,71.77,56.03,13.98,44.99-85.75Z"/>
            </g>
            <g id="triangle36-16" data-name="triangle36" class="cls-11">
              <path class="cls-36" d="M1452,1059.95l28.04-148.82,84.04,69.19-112.08,79.63ZM1481.68,915.99l-26,137.99,103.92-73.83-77.92-64.16Z"/>
            </g>
            <g id="triangle36-17" data-name="triangle36" class="cls-18">
              <path class="cls-36" d="M1507.19,1081.61l53.91-102.74,35.97-2.43-89.88,105.18ZM1562.58,981.6l-42.29,80.61,70.51-82.51-28.22,1.91Z"/>
            </g>
            <g id="triangle36-18" data-name="triangle36" class="cls-5">
              <path class="cls-36" d="M1510.47,821.23l85.62,158.12-35.12,2.37-50.5-160.49ZM1591.77,976.79l-70.88-130.89,41.81,132.85,29.07-1.96Z"/>
            </g>
            <g id="triangle36-19" data-name="triangle36" class="cls-22">
              <path class="cls-36" d="M1042.51,1120.59l14.01-139.42,78.46,85.45-92.47,53.96ZM1058.44,987.19l-12.91,128.44,85.19-49.71-72.28-78.72Z"/>
            </g>
            <g id="triangle36-20" data-name="triangle36" class="cls-15">
              <path class="cls-36" d="M1053.04,981.32l69.68,21.87,12.17,67.28-81.85-89.14ZM1120.57,1005.45l-58.65-18.41,68.9,75.04-10.25-56.63Z"/>
            </g>
            <g id="triangle36-21" data-name="triangle36" class="cls-24">
              <path class="cls-36" d="M1757.01,418.89l113.13-75.52,61.4,195.03-174.54-119.51ZM1868.8,347.56l-106.91,71.36,164.93,112.94-58.02-184.3Z"/>
            </g>
            <g id="triangle36-22" data-name="triangle36" class="cls-34">
              <path class="cls-36" d="M1917.42,642.98l10.79-110.87,72.19,78.62-82.98,32.25ZM1930.15,538.15l-9.8,100.7,75.37-29.29-65.56-71.41Z"/>
            </g>
            <g class="cls-23">
              <path class="cls-36" d="M1821.59,958.54l45.63-46.49v32.72l-45.63,13.77ZM1864.71,918.41l-33.71,34.35,33.71-10.17v-24.17Z"/>
            </g>
            <g id="triangle36-23" data-name="triangle36" class="cls-13">
              <path class="cls-36" d="M1042.37,1117.48l92.61-54.04-46.85,162.98-45.76-108.94ZM1130.72,1069.11l-85.05,49.63,42.02,100.03,43.02-149.66Z"/>
            </g>
            <g id="triangle36-24" data-name="triangle36" class="cls-7">
              <path class="cls-36" d="M864.18,1188.83l105.26-110.26,5.01,8.14-108.61,104.24-1.66-2.12ZM969.03,1082.87l-60.77,63.66,62.83-60.31-2.06-3.35Z"/>
            </g>
            <g id="triangle36-25" data-name="triangle36" class="cls-6">
              <path class="cls-36" d="M1091.53,977.82l48.93-50.65-18.09,79.67-30.84-29.02ZM1135.94,935.7l-40.6,42.03,25.59,24.07,15.01-66.1Z"/>
            </g>
            <g id="triangle36-26" data-name="triangle36" class="cls-27">
              <path class="cls-36" d="M1645.7,502.01l116.57-86.91-43.06,112.34-73.51-25.43ZM1756.63,422.71l-105.09,78.35,66.27,22.93,38.82-101.28Z"/>
            </g>
            <g id="triangle36-27" data-name="triangle36" class="cls-20">
              <path class="cls-36" d="M1717.11,525.81l41.2-107.47,2.36.93-30.51,131.78-13.04-25.25ZM1754.1,436.44l-34.19,89.18,9.35,18.1,24.84-107.28Z"/>
            </g>
            <g id="triangle36-28" data-name="triangle36" class="cls-17">
              <path class="cls-36" d="M1447.37,1053.9l72.46,18.08-36.65,8.27-35.81-26.35ZM1507.64,1071.84l-47.34-11.81,23.4,17.21,23.94-5.4Z"/>
            </g>
            <g id="triangle36-29" data-name="triangle36" class="cls-35">
              <path class="cls-36" d="M1303.18,1204.73l150.55-149.54,32.05,23.58-181.11,128.23-1.49-2.27ZM1453.95,1058.74l-137.47,136.55,164.63-116.56-27.16-19.99Z"/>
            </g>
          </g>
        </g>
        <g class="cls-40">
          <g>
            <g id="triangle36-30" data-name="triangle36" class="cls-31">
              <path class="cls-36" d="M213.07,18.15l-69.56,101.86-22.73-96.91,92.29-4.95ZM144.31,115.49L209.23,20.43l-86.13,4.62,21.21,90.44Z"/>
            </g>
            <g id="triangle36-31" data-name="triangle36" class="cls-25">
              <path class="cls-36" d="M152.91,494.69l-.9,1.79-58.55-33.63-5.07-17.75,64.52,49.6ZM94.94,461.38l45.12,25.92-48.33-37.15,3.21,11.23Z"/>
            </g>
            <g id="triangle36-32" data-name="triangle36" class="cls-16">
              <path class="cls-36" d="M73.94,553.88l-11.63,120.68L-7.71,609.25l81.65-55.37ZM60.88,670.56l10.87-112.8-76.32,51.76,65.45,61.05Z"/>
            </g>
            <g id="triangle36-33" data-name="triangle36" class="cls-29">
              <path class="cls-36" d="M639.17,68.53l-.91,1.11-62.67,76.88,10.1-102.12,53.48,24.13ZM577.99,140.56l58.05-71.21-48.83-22.03-9.22,93.24Z"/>
            </g>
            <g id="triangle36-34" data-name="triangle36" class="cls-1">
              <path class="cls-36" d="M123.25,23.35l-16.75,39.77-.81-.44L-38.58-17.01,123.25,23.35ZM105.65,60.36l14.98-35.55L-24.02-11.26,105.65,60.36Z"/>
            </g>
            <g id="triangle36-35" data-name="triangle36" class="cls-33">
              <path class="cls-36" d="M642.64,72.32l-58.22-26.27,17.42-11.95,40.8,38.22ZM588.49,45.67l44.08,19.89-30.89-28.93-13.19,9.04Z"/>
            </g>
            <g id="triangle36-36" data-name="triangle36" class="cls-8">
              <path class="cls-36" d="M608.12-6.75l-5.53,42.74-18.29,12.55,23.83-55.29ZM600.93,34.72l3.73-28.78-16.04,37.23,12.32-8.45Z"/>
            </g>
            <g id="triangle36-37" data-name="triangle36" class="cls-10">
              <path class="cls-36" d="M416.09,99.38l-94.75,135.27-30.26-145.32,125,10.05ZM322.24,230.07l90.29-128.9-119.12-9.58,28.83,138.48Z"/>
            </g>
            <g id="triangle36-38" data-name="triangle36" class="cls-21">
              <path class="cls-36" d="M95.96,464.98l-57.27-50.55,1-1.71,51.11,34.22,5.16,18.05ZM50.97,422.65l41.47,36.61-3.12-10.94-38.35-25.67Z"/>
            </g>
            <g id="triangle36-39" data-name="triangle36" class="cls-30">
              <path class="cls-36" d="M41.08,415.11l-83.78-20.43,20.26-100.2,63.53,120.63ZM-40.53,393.1l77.93,19-59.09-112.19-18.84,93.19Z"/>
            </g>
            <g id="triangle36-40" data-name="triangle36" class="cls-28">
              <path class="cls-36" d="M241.98,539.05l-90.97-43.05,49.23-77.26,41.74,120.32ZM153.81,495.09l84.92,40.19-38.96-112.31-45.96,72.12Z"/>
            </g>
            <g id="triangle36-41" data-name="triangle36" class="cls-32">
              <path class="cls-36" d="M202.72,421.25l-113.58,27.65,1.05-91.88,112.53,64.23ZM90.97,446.34l106.32-25.88-105.34-60.12-.98,86Z"/>
            </g>
            <g id="triangle36-42" data-name="triangle36" class="cls-14">
              <path class="cls-36" d="M108.17,61.75L-59.42,152.6-31.97-15.66,108.17,61.75ZM-57,149L103.98,61.73-30.63-12.62l-26.37,161.63Z"/>
            </g>
            <g id="triangle36-43" data-name="triangle36" class="cls-9">
              <path class="cls-36" d="M117.62,248.09l-177.88-33.2,1.18-65.74,176.7,98.93ZM-58.44,213.14l164.28,30.66L-57.34,152.44l-1.09,60.7Z"/>
            </g>
            <g id="triangle36-44" data-name="triangle36" class="cls-3">
              <path class="cls-36" d="M294.58,89.99l-82.55,59.57,36.76-71.18,45.78,11.61ZM217.38,143.27l72.52-52.35-40.22-10.2-32.3,62.54Z"/>
            </g>
            <g id="triangle36-45" data-name="triangle36" class="cls-11">
              <path class="cls-36" d="M293.57,88.28l-20.13,108.54-60.33-50.47,80.46-58.08ZM272.25,193.27l18.67-100.64-74.61,53.85,55.94,46.79Z"/>
            </g>
            <g id="triangle36-46" data-name="triangle36" class="cls-18">
              <path class="cls-36" d="M253.94,72.48l-38.7,74.94-25.82,1.77,64.52-76.71ZM214.18,145.42l30.36-58.79-50.62,60.18,20.26-1.39Z"/>
            </g>
            <g id="triangle36-47" data-name="triangle36" class="cls-5">
              <path class="cls-36" d="M251.59,262.39l-61.47-115.32,25.21-1.73,36.26,117.05ZM193.22,148.93l50.88,95.46-30.01-96.89-20.87,1.43Z"/>
            </g>
            <g id="triangle36-48" data-name="triangle36" class="cls-22">
              <path class="cls-36" d="M587.53,44.05l-10.06,101.68-56.33-62.33,66.38-39.36ZM576.1,141.34l9.27-93.68-61.16,36.26,51.89,57.42Z"/>
            </g>
            <g id="triangle36-49" data-name="triangle36" class="cls-15">
              <path class="cls-36" d="M579.98,145.63l-50.02-15.95-8.74-49.07,58.76,65.02ZM531.5,128.02l42.11,13.43-49.46-54.73,7.36,41.3Z"/>
            </g>
            <g id="triangle36-50" data-name="triangle36" class="cls-24">
              <path class="cls-36" d="M74.6,555.83l-81.22,55.08-44.08-142.25,125.3,87.16ZM-5.66,607.86l76.75-52.05-118.4-82.37L-5.66,607.86Z"/>
            </g>
            <g id="triangle36-51" data-name="triangle36" class="cls-4">
              <path class="cls-36" d="M613.04-43.54l-5.95,44.71-54.94-31.99,60.89-12.72ZM605.69-1.96l5.19-39.03-53.15,11.11,47.95,27.92Z"/>
            </g>
            <g id="triangle36-52" data-name="triangle36" class="cls-26">
              <path class="cls-36" d="M607.59-.85l-21.16,49.08-33.44-80.87L607.59-.85ZM586.47,43.49L605.19.06l-48.3-28.13,29.59,71.55Z"/>
            </g>
            <g id="triangle36-53" data-name="triangle36" class="cls-13">
              <path class="cls-36" d="M587.64,46.32l-66.49,39.42,33.63-118.87,32.85,79.45ZM524.21,81.59l61.05-36.2-30.17-72.96-30.88,109.16Z"/>
            </g>
            <g id="triangle36-54" data-name="triangle36" class="cls-7">
              <path class="cls-36" d="M715.56-5.72l-75.56,80.42-3.6-5.94L714.37-7.27l1.19,1.54ZM640.29,71.56l43.63-46.43-45.11,43.99,1.48,2.44Z"/>
            </g>
            <g id="triangle36-55" data-name="triangle36" class="cls-6">
              <path class="cls-36" d="M552.35,148.17l-35.13,36.94,12.99-58.11,22.14,21.17ZM520.46,178.9l29.15-30.65-18.37-17.56-10.78,48.21Z"/>
            </g>
            <g id="triangle36-56" data-name="triangle36" class="cls-27">
              <path class="cls-36" d="M154.5,495.2l-83.69,63.39,30.91-81.93,52.77,18.55ZM74.87,553.04l75.45-57.15-47.58-16.72-27.87,73.87Z"/>
            </g>
            <g id="triangle36-57" data-name="triangle36" class="cls-20">
              <path class="cls-36" d="M103.24,477.85l-29.57,78.38-1.69-.68,21.91-96.12,9.36,18.42ZM76.69,543.03l24.54-65.04-6.71-13.2-17.83,78.24Z"/>
            </g>
            <g id="triangle36-58" data-name="triangle36" class="cls-17">
              <path class="cls-36" d="M296.88,92.69l-52.02-13.19,26.31-6.04,25.71,19.22ZM253.62,79.6l33.98,8.61-16.8-12.55-17.19,3.94Z"/>
            </g>
            <g id="triangle36-59" data-name="triangle36" class="cls-35">
              <path class="cls-36" d="M400.41-17.32l-108.08,109.06-23.01-17.2L399.33-18.97l1.07,1.66ZM292.16,89.16L390.86-10.43l-118.19,85.01,19.5,14.58Z"/>
            </g>
          </g>
        </g>
      </g>
    </g>
  </g>
</svg>